<svg xmlns="http://www.w3.org/2000/svg" xmlns:xlink="http://www.w3.org/1999/xlink" width="500" zoomAndPan="magnify" viewBox="0 0 375 374.999991" height="500" preserveAspectRatio="xMidYMid meet" version="1.2"><defs/><g id="a340c4512a"><g style="fill:#000000;fill-opacity:1;"><g transform="translate(53.933207, 212.28395)"><path style="stroke:none" d="M 39.984375 -43.609375 L 17.125 -43.609375 L 17.125 -7.234375 C 17.125 -6.203125 17.457031 -5.207031 18.125 -4.25 C 18.8125 -3.195312 19.65625 -2.671875 20.65625 -2.671875 C 25.144531 -2.671875 27.390625 -7.304688 27.390625 -16.578125 L 36.46875 -11.390625 C 33 -3.703125 27.632812 0.125 20.375 0.09375 C 16.15625 0.0625 12.875 -1.863281 10.53125 -5.6875 C 9.507812 -7.34375 9 -9.003906 9 -10.671875 L 9 -43.609375 L -0.453125 -43.609375 L -0.453125 -49.03125 L 9 -49.03125 L 9 -64.21875 L 17.125 -58.5625 L 17.125 -49.03125 L 39.984375 -49.03125 Z M 39.984375 -43.609375 "/></g><g transform="translate(93.338673, 212.28395)"><path style="stroke:none" d="M 44.15625 -43.609375 L 14.046875 -43.609375 L 14.046875 -36.375 C 14.171875 -36.375 14.289062 -36.3125 14.40625 -36.1875 C 14.53125 -36.070312 14.640625 -36.015625 14.734375 -36.015625 C 14.492188 -36.015625 14.359375 -36.03125 14.328125 -36.0625 C 14.328125 -36.207031 16.570312 -36.6875 21.0625 -37.5 C 22.71875 -37.800781 24.359375 -37.953125 25.984375 -37.953125 C 32.765625 -37.953125 37.117188 -36.054688 39.046875 -32.265625 C 40.335938 -29.734375 40.984375 -24.628906 40.984375 -16.953125 L 40.984375 0.453125 C 40.347656 0.210938 37.953125 -0.765625 33.796875 -2.484375 C 33.796875 -3.453125 33.601562 -4.070312 33.21875 -4.34375 C 31.613281 -3.40625 30.300781 -2.695312 29.28125 -2.21875 C 26.03125 -0.675781 22.25 0.09375 17.9375 0.09375 C 12 0.09375 7.421875 -1.773438 4.203125 -5.515625 C 2.640625 -7.316406 1.859375 -9.332031 1.859375 -11.5625 C 1.859375 -14.0625 3.09375 -16.550781 5.5625 -19.03125 C 10.351562 -23.8125 16.300781 -26.203125 23.40625 -26.203125 C 27.71875 -26.203125 31.179688 -25.210938 33.796875 -23.234375 L 33.796875 -27.390625 C 32.472656 -29.078125 31.1875 -30.203125 29.9375 -30.765625 C 28.6875 -31.335938 26.976562 -31.597656 24.8125 -31.546875 C 19.957031 -31.453125 15.515625 -30.5625 11.484375 -28.875 C 9.671875 -28.125 7.90625 -27.445312 6.1875 -26.84375 L 6.1875 -30.1875 C 6.582031 -30.519531 7.15625 -31.015625 7.90625 -31.671875 C 8.03125 -31.828125 8.109375 -31.921875 8.140625 -31.953125 L 8.140625 -43.609375 L -1.125 -43.609375 L -1.125 -49.03125 L 44.15625 -49.03125 Z M 33.796875 -15 C 33.796875 -16.320312 32.21875 -17.515625 29.0625 -18.578125 C 26.4375 -19.453125 24.25 -19.890625 22.5 -19.890625 C 16.144531 -19.890625 11.054688 -17.597656 7.234375 -13.015625 C 5.691406 -11.179688 4.921875 -9.675781 4.921875 -8.5 C 5.554688 -6.300781 8.039062 -5.203125 12.375 -5.203125 C 17.976562 -5.203125 23.101562 -6.601562 27.75 -9.40625 C 31.78125 -11.84375 33.796875 -13.707031 33.796875 -15 Z M 33.796875 -15 "/></g><g transform="translate(137.308304, 212.28395)"><path style="stroke:none" d="M 39.984375 -43.609375 L 17.125 -43.609375 L 17.125 -7.234375 C 17.125 -6.203125 17.457031 -5.207031 18.125 -4.25 C 18.8125 -3.195312 19.65625 -2.671875 20.65625 -2.671875 C 25.144531 -2.671875 27.390625 -7.304688 27.390625 -16.578125 L 36.46875 -11.390625 C 33 -3.703125 27.632812 0.125 20.375 0.09375 C 16.15625 0.0625 12.875 -1.863281 10.53125 -5.6875 C 9.507812 -7.34375 9 -9.003906 9 -10.671875 L 9 -43.609375 L -0.453125 -43.609375 L -0.453125 -49.03125 L 9 -49.03125 L 9 -64.21875 L 17.125 -58.5625 L 17.125 -49.03125 L 39.984375 -49.03125 Z M 39.984375 -43.609375 "/></g><g transform="translate(176.71377, 212.28395)"><path style="stroke:none" d="M 49.625 -43.609375 L 13.15625 -43.609375 L 13.15625 -30 C 16.4375 -33.59375 19.476562 -35.898438 22.28125 -36.921875 C 23.84375 -37.492188 25.601562 -37.78125 27.5625 -37.78125 C 34.914062 -37.78125 40.414062 -34.164062 44.0625 -26.9375 C 45.65625 -23.769531 46.453125 -20.648438 46.453125 -17.578125 C 46.453125 -11.972656 44.148438 -6.910156 39.546875 -2.390625 C 38.003906 -0.890625 36.859375 0.144531 36.109375 0.71875 L 28.6875 -3.703125 C 30.5625 -5.660156 32.6875 -8.070312 35.0625 -10.9375 C 37.75 -14.15625 39.109375 -18.222656 39.140625 -23.140625 C 39.160156 -26.054688 38.492188 -28.492188 37.140625 -30.453125 C 35.609375 -32.742188 33.441406 -33.859375 30.640625 -33.796875 C 28.046875 -33.734375 25.273438 -32.753906 22.328125 -30.859375 C 19.671875 -29.171875 17.46875 -27.15625 15.71875 -24.8125 C 13.820312 -22.28125 12.875 -19.835938 12.875 -17.484375 L 12.875 0.453125 L 4.421875 -4.0625 L 4.421875 -43.609375 L -0.546875 -43.609375 L -0.546875 -49.03125 L 4.421875 -49.03125 C 4.421875 -57.882812 2.117188 -65.445312 -2.484375 -71.71875 C -5.253906 -75.476562 -7.816406 -78.128906 -10.171875 -79.671875 L -1.046875 -79.765625 C 4.015625 -76.984375 8.039062 -71 11.03125 -61.8125 C 12.445312 -57.445312 13.15625 -53.1875 13.15625 -49.03125 L 49.625 -49.03125 Z M 49.625 -43.609375 "/></g><g transform="translate(225.835034, 212.28395)"><path style="stroke:none" d="M 51.921875 -49.03125 L 51.828125 -43.609375 L 13.6875 -43.609375 L 13.78125 -16.953125 C 13.78125 -13.035156 14.457031 -10.1875 15.8125 -8.40625 C 17.351562 -6.445312 20.035156 -5.378906 23.859375 -5.203125 C 26.296875 -5.078125 28.738281 -5.875 31.1875 -7.59375 C 33.351562 -9.09375 35.144531 -11.003906 36.5625 -13.328125 C 38.09375 -15.859375 38.859375 -18.328125 38.859375 -20.734375 L 38.765625 -37.78125 L 48.21875 -34.53125 L 48.21875 11.75 C 48.21875 17.382812 45.625 21.976562 40.4375 25.53125 C 35.65625 28.8125 30.039062 30.453125 23.59375 30.453125 C 12.6875 30.453125 4.925781 27.488281 0.3125 21.5625 C -1.550781 19.144531 -2.484375 17.078125 -2.484375 15.359375 C -2.453125 11.597656 -0.34375 8.4375 3.84375 5.875 C 7.550781 3.613281 11.390625 2.484375 15.359375 2.484375 L 21.109375 10.171875 C 15.921875 10.523438 11.28125 11.625 7.1875 13.46875 C 4.5 14.675781 3.15625 16.226562 3.15625 18.125 C 3.488281 20.863281 5.554688 23.285156 9.359375 25.390625 C 11.617188 26.660156 14.539062 27.296875 18.125 27.296875 C 26.34375 27.296875 32.546875 24.628906 36.734375 19.296875 C 38.722656 16.765625 39.71875 13.8125 39.71875 10.4375 L 39.71875 -7.953125 C 37.757812 -4.753906 32.535156 -3.15625 24.046875 -3.15625 C 16.898438 -3.15625 11.488281 -5.597656 7.8125 -10.484375 C 6.007812 -12.859375 5.109375 -15.570312 5.109375 -18.625 L 5.109375 -43.609375 L -1.3125 -43.609375 L -1.3125 -49.03125 Z M 51.921875 -49.03125 "/></g><g transform="translate(277.125405, 212.28395)"><path style="stroke:none" d="M 44.15625 -43.609375 L 14.046875 -43.609375 L 14.046875 -36.375 C 14.171875 -36.375 14.289062 -36.3125 14.40625 -36.1875 C 14.53125 -36.070312 14.640625 -36.015625 14.734375 -36.015625 C 14.492188 -36.015625 14.359375 -36.03125 14.328125 -36.0625 C 14.328125 -36.207031 16.570312 -36.6875 21.0625 -37.5 C 22.71875 -37.800781 24.359375 -37.953125 25.984375 -37.953125 C 32.765625 -37.953125 37.117188 -36.054688 39.046875 -32.265625 C 40.335938 -29.734375 40.984375 -24.628906 40.984375 -16.953125 L 40.984375 0.453125 C 40.347656 0.210938 37.953125 -0.765625 33.796875 -2.484375 C 33.796875 -3.453125 33.601562 -4.070312 33.21875 -4.34375 C 31.613281 -3.40625 30.300781 -2.695312 29.28125 -2.21875 C 26.03125 -0.675781 22.25 0.09375 17.9375 0.09375 C 12 0.09375 7.421875 -1.773438 4.203125 -5.515625 C 2.640625 -7.316406 1.859375 -9.332031 1.859375 -11.5625 C 1.859375 -14.0625 3.09375 -16.550781 5.5625 -19.03125 C 10.351562 -23.8125 16.300781 -26.203125 23.40625 -26.203125 C 27.71875 -26.203125 31.179688 -25.210938 33.796875 -23.234375 L 33.796875 -27.390625 C 32.472656 -29.078125 31.1875 -30.203125 29.9375 -30.765625 C 28.6875 -31.335938 26.976562 -31.597656 24.8125 -31.546875 C 19.957031 -31.453125 15.515625 -30.5625 11.484375 -28.875 C 9.671875 -28.125 7.90625 -27.445312 6.1875 -26.84375 L 6.1875 -30.1875 C 6.582031 -30.519531 7.15625 -31.015625 7.90625 -31.671875 C 8.03125 -31.828125 8.109375 -31.921875 8.140625 -31.953125 L 8.140625 -43.609375 L -1.125 -43.609375 L -1.125 -49.03125 L 44.15625 -49.03125 Z M 33.796875 -15 C 33.796875 -16.320312 32.21875 -17.515625 29.0625 -18.578125 C 26.4375 -19.453125 24.25 -19.890625 22.5 -19.890625 C 16.144531 -19.890625 11.054688 -17.597656 7.234375 -13.015625 C 5.691406 -11.179688 4.921875 -9.675781 4.921875 -8.5 C 5.554688 -6.300781 8.039062 -5.203125 12.375 -5.203125 C 17.976562 -5.203125 23.101562 -6.601562 27.75 -9.40625 C 31.78125 -11.84375 33.796875 -13.707031 33.796875 -15 Z M 33.796875 -15 "/></g></g></g></svg>
